# Blender v2.78 (sub 0) OBJ File: ''
# www.blender.org
mtllib ico_axis_y.mtl
o Icosphere
v 0.000000 -1.000000 0.000000
v 0.723600 -0.447215 0.525720
v -0.276385 -0.447215 0.850640
v -0.894425 -0.447215 0.000000
v -0.276385 -0.447215 -0.850640
v 0.723600 -0.447215 -0.525720
v 0.276385 0.447215 0.850640
v -0.723600 0.447215 0.525720
v -0.723600 0.447215 -0.525720
v 0.276385 0.447215 -0.850640
v 0.894425 0.447215 0.000000
v 0.000000 1.000000 0.000000
vn 0.0000 -1.0000 0.0000
vn 0.7236 -0.4472 0.5257
vn -0.2764 -0.4472 0.8506
vn 0.7236 -0.4472 -0.5257
vn -0.8944 -0.4472 0.0000
vn -0.2764 -0.4472 -0.8506
vn 0.8944 0.4472 0.0000
vn 0.2764 0.4472 0.8506
vn -0.7236 0.4472 0.5257
vn -0.7236 0.4472 -0.5257
vn 0.2764 0.4472 -0.8506
vn 0.0000 1.0000 0.0000
usemtl None
s 1
f 1//1 2//2 3//3
f 2//2 1//1 6//4
f 1//1 3//3 4//5
f 1//1 4//5 5//6
f 1//1 5//6 6//4
f 2//2 6//4 11//7
f 3//3 2//2 7//8
f 4//5 3//3 8//9
f 5//6 4//5 9//10
f 6//4 5//6 10//11
f 2//2 11//7 7//8
f 3//3 7//8 8//9
f 4//5 8//9 9//10
f 5//6 9//10 10//11
f 6//4 10//11 11//7
f 7//8 11//7 12//12
f 8//9 7//8 12//12
f 9//10 8//9 12//12
f 10//11 9//10 12//12
f 11//7 10//11 12//12
