# Blender v2.78 (sub 0) OBJ File: ''
# www.blender.org
o Solid
v 0.577350 0.577350 -0.577350
v 0.577350 -0.577350 -0.577350
v 0.577350 0.577350 0.577350
v 0.577350 -0.577350 0.577350
v -0.577350 0.577350 -0.577350
v -0.577350 -0.577350 -0.577350
v -0.577350 0.577350 0.577350
v -0.577350 -0.577350 0.577350
v 0.356822 0.000000 -0.934172
v -0.356822 0.000000 -0.934172
v 0.356822 0.000000 0.934172
v -0.356822 0.000000 0.934172
v 0.934172 0.356822 0.000000
v 0.934172 -0.356822 0.000000
v -0.934172 0.356822 0.000000
v -0.934172 -0.356822 0.000000
v 0.000000 0.934172 -0.356822
v 0.000000 0.934172 0.356822
v 0.000000 -0.934172 -0.356822
v 0.000000 -0.934172 0.356822
vn 0.5773 0.5773 -0.5773
vn 0.3568 0.0000 -0.9342
vn -0.5773 0.5773 -0.5773
vn 0.0000 0.9342 -0.3568
vn -0.3568 0.0000 -0.9342
vn 0.9342 0.3568 0.0000
vn 0.5773 -0.5773 -0.5773
vn 0.9342 -0.3568 0.0000
vn 0.5773 0.5773 0.5773
vn 0.0000 0.9342 0.3568
vn -0.5773 -0.5773 -0.5773
vn 0.0000 -0.9342 -0.3568
vn 0.5773 -0.5773 0.5773
vn 0.3568 0.0000 0.9342
vn -0.5773 0.5773 0.5773
vn -0.9342 0.3568 0.0000
vn -0.9342 -0.3568 0.0000
vn -0.3568 0.0000 0.9342
vn 0.0000 -0.9342 0.3568
vn -0.5773 -0.5773 0.5773
s 1
f 1//1 9//2 5//3 17//4
f 9//2 10//5 5//3
f 1//1 13//6 2//7 9//2
f 13//6 14//8 2//7
f 1//1 17//4 3//9 13//6
f 17//4 18//10 3//9
f 9//2 2//7 6//11 10//5
f 2//7 19//12 6//11
f 13//6 3//9 4//13 14//8
f 3//9 11//14 4//13
f 17//4 5//3 7//15 18//10
f 5//3 15//16 7//15
f 10//5 6//11 15//16 5//3
f 6//11 16//17 15//16
f 7//15 12//18 3//9 18//10
f 12//18 11//14 3//9
f 4//13 20//19 2//7 14//8
f 20//19 19//12 2//7
f 8//20 16//17 19//12 20//19
f 16//17 6//11 19//12
f 8//20 12//18 15//16 16//17
f 12//18 7//15 15//16
f 8//20 20//19 11//14 12//18
f 20//19 4//13 11//14
