# Blender v2.78 (sub 0) OBJ File: ''
# www.blender.org
o Solid.001
v 0.850651 0.000000 -0.525731
v -0.850651 0.000000 -0.525731
v 0.850651 0.000000 0.525731
v -0.850651 0.000000 0.525731
v 0.525731 0.850651 0.000000
v 0.525731 -0.850651 0.000000
v -0.525731 0.850651 0.000000
v -0.525731 -0.850651 0.000000
v 0.000000 0.525731 -0.850651
v 0.000000 0.525731 0.850651
v 0.000000 -0.525731 -0.850651
v 0.000000 -0.525731 0.850651
vn 0.8506 0.0000 -0.5257
vn 0.0000 0.5257 -0.8506
vn 0.5257 0.8506 0.0000
vn 0.5257 -0.8506 0.0000
vn 0.0000 -0.5257 -0.8506
vn 0.8506 0.0000 0.5257
vn 0.0000 0.5257 0.8506
vn 0.0000 -0.5257 0.8506
vn -0.8506 0.0000 -0.5257
vn -0.5257 0.8506 0.0000
vn -0.5257 -0.8506 0.0000
vn -0.8506 0.0000 0.5257
s 1
f 1//1 9//2 5//3
f 1//1 6//4 11//5
f 3//6 5//3 10//7
f 3//6 12//8 6//4
f 2//9 7//10 9//2
f 2//9 11//5 8//11
f 4//12 10//7 7//10
f 4//12 8//11 12//8
f 1//1 11//5 9//2
f 2//9 9//2 11//5
f 3//6 10//7 12//8
f 4//12 12//8 10//7
f 5//3 3//6 1//1
f 6//4 1//1 3//6
f 7//10 2//9 4//12
f 8//11 4//12 2//9
f 9//2 7//10 5//3
f 10//7 5//3 7//10
f 11//5 6//4 8//11
f 12//8 8//11 6//4
