# Blender v2.78 (sub 0) OBJ File: ''
# www.blender.org
o Solid.001
v 0.850651 0.000000 -0.525731
v 0.000000 0.525731 -0.850651
v 0.525731 0.850651 0.000000
v 0.525731 -0.850651 -0.000000
v 0.000000 -0.525731 -0.850651
v 0.850651 -0.000000 0.525731
v 0.000000 0.525731 0.850651
v 0.000000 -0.525731 0.850651
v -0.850651 0.000000 -0.525731
v -0.525731 0.850651 0.000000
v -0.525731 -0.850651 -0.000000
v -0.850651 -0.000000 0.525731
v -0.688191 0.425326 -0.262865
v 0.425326 0.262865 0.688191
v 0.850651 0.000000 0.000000
v -0.262866 0.688191 -0.425325
v -0.262866 -0.688191 0.425325
v 0.688191 -0.425326 0.262865
v 0.425326 -0.262866 0.688191
v 0.262866 -0.688191 -0.425326
v -0.688191 -0.425326 0.262865
v 0.262866 0.688191 0.425326
v 0.425326 -0.262865 -0.688191
v -0.425326 0.262865 0.688191
v 0.000000 -0.850651 -0.000000
v 0.688191 0.425325 0.262866
v 0.688191 -0.425325 -0.262866
v 0.262866 0.688191 -0.425325
v -0.262866 0.688191 0.425326
v 0.262866 -0.688191 0.425325
v 0.000000 0.000000 -0.850651
v -0.425326 -0.262866 0.688191
v -0.850651 0.000000 0.000000
v 0.000000 -0.000000 0.850651
v 0.688191 0.425326 -0.262865
v 0.000000 0.850651 0.000000
v -0.688191 0.425325 0.262866
v -0.688191 -0.425325 -0.262866
v 0.425326 0.262866 -0.688191
v -0.425326 -0.262865 -0.688191
v -0.425326 0.262866 -0.688191
v -0.262866 -0.688191 -0.425326
vn 0.8507 0.0000 -0.5257
vn 0.5000 0.3090 -0.8090
vn 0.8090 0.5000 -0.3090
vn 0.8090 -0.5000 -0.3090
vn 0.5000 -0.3090 -0.8090
vn 0.8507 -0.0000 0.5257
vn 0.8090 0.5000 0.3090
vn 0.5000 0.3090 0.8090
vn 0.5000 -0.3090 0.8090
vn 0.8090 -0.5000 0.3090
vn -0.8507 0.0000 -0.5257
vn -0.8090 0.5000 -0.3090
vn -0.5000 0.3090 -0.8090
vn -0.5000 -0.3090 -0.8090
vn -0.8090 -0.5000 -0.3090
vn -0.8507 -0.0000 0.5257
vn -0.5000 0.3090 0.8090
vn -0.8090 0.5000 0.3090
vn -0.8090 -0.5000 0.3090
vn -0.5000 -0.3090 0.8090
vn 0.5257 0.8507 0.0000
vn 0.5257 -0.8507 -0.0000
vn -0.5257 0.8507 0.0000
vn -0.5257 -0.8507 -0.0000
vn 0.0000 0.5257 -0.8507
vn -0.3090 0.8090 -0.5000
vn 0.3090 0.8090 -0.5000
vn 0.0000 0.5257 0.8507
vn 0.3090 0.8090 0.5000
vn -0.3090 0.8090 0.5000
vn 0.0000 -0.5257 -0.8507
vn 0.3090 -0.8090 -0.5000
vn -0.3090 -0.8090 -0.5000
vn 0.0000 -0.5257 0.8507
vn -0.3090 -0.8090 0.5000
vn 0.3090 -0.8090 0.5000
vn 0.0000 -1.0000 -0.0000
vn 0.0000 1.0000 0.0000
vn -1.0000 0.0000 0.0000
vn 1.0000 0.0000 0.0000
vn -0.0000 -0.0000 1.0000
vn -0.0000 0.0000 -1.0000
s 1
f 1//1 39//2 35//3
f 1//1 27//4 23//5
f 6//6 26//7 14//8
f 6//6 19//9 18//10
f 9//11 13//12 41//13
f 9//11 40//14 38//15
f 12//16 24//17 37//18
f 12//16 21//19 32//20
f 1//1 23//5 39//2
f 9//11 41//13 40//14
f 6//6 14//8 19//9
f 12//16 32//20 24//17
f 3//21 26//7 35//3
f 4//22 27//4 18//10
f 10//23 13//12 37//18
f 11//24 21//19 38//15
f 2//25 16//26 28//27
f 7//28 22//29 29//30
f 5//31 20//32 42//33
f 8//34 17//35 30//36
f 30//36 25//37 4//22
f 30//36 17//35 25//37
f 17//35 11//24 25//37
f 42//33 25//37 11//24
f 42//33 20//32 25//37
f 20//32 4//22 25//37
f 29//30 36//38 10//23
f 29//30 22//29 36//38
f 22//29 3//21 36//38
f 28//27 36//38 3//21
f 28//27 16//26 36//38
f 16//26 10//23 36//38
f 38//15 33//39 9//11
f 38//15 21//19 33//39
f 21//19 12//16 33//39
f 37//18 33//39 12//16
f 37//18 13//12 33//39
f 13//12 9//11 33//39
f 18//10 15//40 6//6
f 18//10 27//4 15//40
f 27//4 1//1 15//40
f 35//3 15//40 1//1
f 35//3 26//7 15//40
f 26//7 6//6 15//40
f 24//17 34//41 7//28
f 24//17 32//20 34//41
f 32//20 8//34 34//41
f 19//9 34//41 8//34
f 19//9 14//8 34//41
f 14//8 7//28 34//41
f 40//14 31//42 5//31
f 40//14 41//13 31//42
f 41//13 2//25 31//42
f 39//2 31//42 2//25
f 39//2 23//5 31//42
f 23//5 5//31 31//42
f 32//20 17//35 8//34
f 32//20 21//19 17//35
f 21//19 11//24 17//35
f 37//18 29//30 10//23
f 37//18 24//17 29//30
f 24//17 7//28 29//30
f 38//15 42//33 11//24
f 38//15 40//14 42//33
f 40//14 5//31 42//33
f 41//13 16//26 2//25
f 41//13 13//12 16//26
f 13//12 10//23 16//26
f 18//10 30//36 4//22
f 18//10 19//9 30//36
f 19//9 8//34 30//36
f 14//8 22//29 7//28
f 14//8 26//7 22//29
f 26//7 3//21 22//29
f 23//5 20//32 5//31
f 23//5 27//4 20//32
f 27//4 4//22 20//32
f 35//3 28//27 3//21
f 35//3 39//2 28//27
f 39//2 2//25 28//27
