# Blender v2.78 (sub 0) OBJ File: ''
# www.blender.org
o Cube
v -0.845450 -0.459675 0.249999
v -0.845450 0.249999 0.459675
v -0.845450 -0.249999 -0.459675
v -0.845450 0.459675 -0.249999
v -0.459675 -0.249999 0.845450
v -0.249999 0.459675 0.845450
v 0.249999 -0.459675 0.845450
v 0.459675 0.249999 0.845450
v -0.459675 0.845450 0.249999
v -0.249999 0.845450 -0.459675
v 0.249999 0.845450 0.459675
v 0.459675 0.845450 -0.249999
v 0.845450 -0.249999 0.459675
v 0.845450 0.459675 0.249999
v 0.845450 -0.459675 -0.249999
v 0.845450 0.249999 -0.459675
v -0.249999 -0.459675 -0.845450
v -0.459675 0.249999 -0.845450
v 0.459675 -0.249999 -0.845450
v 0.249999 0.459675 -0.845450
v -0.249998 -0.845450 0.459674
v -0.459674 -0.845450 -0.249999
v 0.459675 -0.845450 0.249998
v 0.249999 -0.845450 -0.459675
vn -0.8693 0.2361 0.4342
vn -0.2361 0.4342 0.8693
vn -0.4342 0.8693 0.2361
vn -0.4342 0.2361 -0.8693
vn -0.8693 0.4342 -0.2361
vn -0.2361 0.8693 -0.4342
vn 0.2361 -0.4342 0.8693
vn 0.8693 -0.2361 0.4342
vn 0.4342 0.2361 0.8693
vn 0.2361 0.8693 0.4342
vn 0.8693 0.4342 0.2361
vn 0.8693 0.2361 -0.4342
vn 0.4342 0.8693 -0.2361
vn 0.4342 -0.8693 0.2361
vn -0.8693 -0.4342 0.2361
vn -0.8693 -0.2361 -0.4342
vn -0.4342 -0.2361 0.8693
vn 0.2361 0.4342 -0.8693
vn -0.4342 -0.8693 -0.2361
vn -0.2361 -0.4342 -0.8693
vn 0.2361 -0.8693 -0.4342
vn 0.4342 -0.2361 -0.8693
vn 0.8693 -0.4342 -0.2361
vn -0.2361 -0.8693 0.4342
s 1
f 2//1 6//2 9//3
f 18//4 4//5 10//6
f 7//7 13//8 8//9
f 8//9 11//10 6//2
f 14//11 16//12 12//13
f 23//14 13//8 7//7
f 1//15 2//1 4//5 3//16
f 5//17 6//2 2//1
f 12//13 16//12 20//18
f 22//19 17//20 24//21
f 7//7 8//9 6//2 5//17
f 12//13 20//18 10//6
f 24//21 17//20 19//22
f 19//22 16//12 15//23
f 12//13 10//6 9//3 11//10
f 2//1 9//3 4//5
f 9//3 6//2 11//10
f 8//9 13//8 14//11
f 15//23 16//12 14//11 13//8
f 10//6 4//5 9//3
f 18//4 10//6 20//18
f 4//5 18//4 3//16
f 17//20 18//4 20//18 19//22
f 12//13 11//10 14//11
f 14//11 11//10 8//9
f 16//12 19//22 20//18
f 22//19 24//21 23//14 21//24
f 5//17 2//1 1//15
f 17//20 3//16 18//4
f 24//21 19//22 15//23
f 5//17 21//24 7//7
f 21//24 23//14 7//7
f 5//17 1//15 21//24
f 3//16 17//20 22//19
f 22//19 1//15 3//16
f 1//15 22//19 21//24
f 15//23 23//14 24//21
f 15//23 13//8 23//14
